<svg fill="none" height="142" width="208" xmlns="http://www.w3.org/2000/svg"><clipPath id="a"><path d="M0 0h208v142H0z"/></clipPath><g clip-path="url(#a)"><path d="M0 0h208v142H0z" fill="#fff"/><g fill="red" opacity=".3"><path d="M-1 19.88h208v2.1H-1z"/><path d="M40.6 21.97h4.16V141H40.6z"/><path d="M40.6 28.24h4.16v16.7H40.6zM5.24 30.32c0-1.25.83-2.08 2.08-2.08H40.6v16.7H7.32a2.08 2.08 0 0 1-2.08-2.09zM152.92 28.24H55.16c-1.15 0-2.08.93-2.08 2.08v12.53c0 1.16.93 2.1 2.08 2.1h97.76c1.15 0 2.08-.94 2.08-2.1V30.32c0-1.15-.93-2.08-2.08-2.08zM198.68 7.35h-4.16c-1.15 0-2.08.94-2.08 2.1v4.17c0 1.15.93 2.09 2.08 2.09h4.16c1.15 0 2.08-.94 2.08-2.1V9.45c0-1.15-.93-2.09-2.08-2.09zM184.12 7.35h-4.16c-1.15 0-2.08.94-2.08 2.1v4.17c0 1.15.93 2.09 2.08 2.09h4.16c1.15 0 2.08-.94 2.08-2.1V9.45c0-1.15-.93-2.09-2.08-2.09zM11.48 7.35H7.32c-1.15 0-2.08.94-2.08 2.1v4.17c0 1.15.93 2.09 2.08 2.09h4.16c1.15 0 2.08-.94 2.08-2.1V9.45c0-1.15-.93-2.09-2.08-2.09zM198.68 55.38H75.96c-1.15 0-2.08.94-2.08 2.1v4.17c0 1.15.93 2.09 2.08 2.09h122.72c1.15 0 2.08-.94 2.08-2.1v-4.17c0-1.15-.93-2.09-2.08-2.09zM192.44 70H75.96c-1.15 0-2.08.93-2.08 2.09v4.17c0 1.16.93 2.1 2.08 2.1h116.48c1.15 0 2.08-.94 2.08-2.1V72.1c0-1.16-.93-2.09-2.08-2.09zM190.36 84.62H75.96c-1.15 0-2.08.93-2.08 2.09v4.17c0 1.16.93 2.1 2.08 2.1h114.4c1.15 0 2.08-.94 2.08-2.1v-4.17c0-1.16-.93-2.1-2.08-2.1zM194.52 99.24H75.96c-1.15 0-2.08.93-2.08 2.08v4.18c0 1.15.93 2.09 2.08 2.09h118.56c1.15 0 2.08-.94 2.08-2.09v-4.18c0-1.15-.93-2.08-2.08-2.08zM63.48 55.38h-8.32c-1.15 0-2.08.94-2.08 2.1v8.34c0 1.16.93 2.1 2.08 2.1h8.32c1.15 0 2.08-.94 2.08-2.1v-8.35c0-1.15-.93-2.09-2.08-2.09zM63.48 88.8h-8.32c-1.15 0-2.08.93-2.08 2.08v8.36c0 1.15.93 2.08 2.08 2.08h8.32c1.15 0 2.08-.93 2.08-2.08v-8.36c0-1.15-.93-2.09-2.08-2.09zM198.68 118.03h-24.96c-1.15 0-2.08.93-2.08 2.09v12.53c0 1.15.93 2.08 2.08 2.08h24.96c1.15 0 2.08-.93 2.08-2.08v-12.53c0-1.16-.93-2.1-2.08-2.1zM61.4 74.18h-4.16c-1.15 0-2.08.93-2.08 2.08v4.18c0 1.15.93 2.09 2.08 2.09h4.16c1.15 0 2.08-.94 2.08-2.09v-4.18c0-1.15-.93-2.08-2.08-2.08zM198.68 28.24h-35.36c-1.15 0-2.08.93-2.08 2.08v12.53c0 1.16.93 2.1 2.08 2.1h35.36c1.15 0 2.08-.94 2.08-2.1V30.32c0-1.15-.93-2.08-2.08-2.08z"/></g><g fill="#0ff" opacity=".3"><path d="M0 21.88h208v2.1H0z"/><path d="M41.6 23.97h4.16V143H41.6z"/><path d="M41.6 30.24h4.16v16.7H41.6zM6.24 32.32c0-1.25.83-2.08 2.08-2.08H41.6v16.7H8.32a2.08 2.08 0 0 1-2.08-2.09zM153.92 30.24H56.16c-1.15 0-2.08.93-2.08 2.08v12.53c0 1.16.93 2.1 2.08 2.1h97.76c1.15 0 2.08-.94 2.08-2.1V32.32c0-1.15-.93-2.08-2.08-2.08zM199.68 9.35h-4.16c-1.15 0-2.08.94-2.08 2.1v4.17c0 1.15.93 2.09 2.08 2.09h4.16c1.15 0 2.08-.94 2.08-2.1v-4.17c0-1.15-.93-2.09-2.08-2.09zM185.12 9.35h-4.16c-1.15 0-2.08.94-2.08 2.1v4.17c0 1.15.93 2.09 2.08 2.09h4.16c1.15 0 2.08-.94 2.08-2.1v-4.17c0-1.15-.93-2.09-2.08-2.09zM12.48 9.35H8.32c-1.15 0-2.08.94-2.08 2.1v4.17c0 1.15.93 2.09 2.08 2.09h4.16c1.15 0 2.08-.94 2.08-2.1v-4.17c0-1.15-.93-2.09-2.08-2.09zM199.68 57.38H76.96c-1.15 0-2.08.94-2.08 2.1v4.17c0 1.15.93 2.09 2.08 2.09h122.72c1.15 0 2.08-.94 2.08-2.1v-4.17c0-1.15-.93-2.09-2.08-2.09zM193.44 72H76.96c-1.15 0-2.08.93-2.08 2.09v4.17c0 1.16.93 2.1 2.08 2.1h116.48c1.15 0 2.08-.94 2.08-2.1V74.1c0-1.16-.93-2.09-2.08-2.09zM191.36 86.62H76.96c-1.15 0-2.08.93-2.08 2.09v4.17c0 1.16.93 2.1 2.08 2.1h114.4c1.15 0 2.08-.94 2.08-2.1v-4.17c0-1.16-.93-2.1-2.08-2.1zM195.52 101.23H76.96c-1.15 0-2.08.94-2.08 2.1v4.17c0 1.15.93 2.09 2.08 2.09h118.56c1.15 0 2.08-.94 2.08-2.09v-4.18c0-1.15-.93-2.08-2.08-2.08zM64.48 57.38h-8.32c-1.15 0-2.08.94-2.08 2.1v8.34c0 1.16.93 2.1 2.08 2.1h8.32c1.15 0 2.08-.94 2.08-2.1v-8.35c0-1.15-.93-2.09-2.08-2.09zM64.48 90.8h-8.32c-1.15 0-2.08.93-2.08 2.08v8.36c0 1.15.93 2.08 2.08 2.08h8.32c1.15 0 2.08-.93 2.08-2.08v-8.36c0-1.15-.93-2.09-2.08-2.09zM199.68 120.03h-24.96c-1.15 0-2.08.93-2.08 2.09v12.53c0 1.15.93 2.08 2.08 2.08h24.96c1.15 0 2.08-.93 2.08-2.08v-12.53c0-1.16-.93-2.1-2.08-2.1zM62.4 76.18h-4.16c-1.15 0-2.08.93-2.08 2.08v4.18c0 1.15.93 2.09 2.08 2.09h4.16c1.15 0 2.08-.94 2.08-2.09v-4.18c0-1.15-.93-2.08-2.08-2.08zM199.68 30.24h-35.36c-1.15 0-2.08.93-2.08 2.08v12.53c0 1.16.93 2.1 2.08 2.1h35.36c1.15 0 2.08-.94 2.08-2.1V32.32c0-1.15-.93-2.08-2.08-2.08z"/></g></g></svg>
