<svg width="364" height="364" fill="none" xmlns="http://www.w3.org/2000/svg"><g clip-path="url(#a)" fill="#EF151E"><path d="M181.73 363.45C81.52 363.45 0 281.93 0 181.72S81.52 0 181.73 0s181.72 81.52 181.72 181.72-81.52 181.73-181.72 181.73Zm0-357.45C84.83 6 6 84.83 6 181.72s78.83 175.73 175.73 175.73c96.9 0 175.72-78.83 175.72-175.73C357.45 84.82 278.6 6 181.73 6Z"/><path d="M181.73 300.37a118.65 118.65 0 1 1 118.64-118.65 118.78 118.78 0 0 1-118.64 118.65Zm0-231.29a112.65 112.65 0 1 0 112.64 112.64A112.78 112.78 0 0 0 181.73 69.08ZM34.73 131.21l-2.15 8.05 22 5.86-1.35 5.06-22-5.87-2.11 8-4.11-1.1 5.61-21.05 4.11 1.05ZM54.81 113.4c1.48.66 2.85 1.54 4.07 2.61 1.08.94 1.97 2.08 2.61 3.36a9.18 9.18 0 0 1 0 8.09 9.31 9.31 0 0 1-2.52 3.42 8.57 8.57 0 0 1-3.51 1.77c-1.38.32-2.8.38-4.21.17-1.6-.24-3.16-.7-4.62-1.39l-3.58-1.62a16.76 16.76 0 0 1-4.09-2.57 11.28 11.28 0 0 1-2.66-3.28 8.85 8.85 0 0 1-1-3.81 9.23 9.23 0 0 1 .91-4.14 9.13 9.13 0 0 1 6.11-5.33 10.9 10.9 0 0 1 4.26-.25c1.6.2 3.17.66 4.64 1.35l3.59 1.62Zm-5.8 3.18c-.93-.43-1.9-.76-2.89-1a7.5 7.5 0 0 0-2.52-.22 4 4 0 0 0-3.42 2.45 3.87 3.87 0 0 0-.36 2.16c.12.7.42 1.34.86 1.89a7.77 7.77 0 0 0 1.88 1.67c.85.56 1.75 1.05 2.68 1.46l3.61 1.64c.92.41 1.87.75 2.85 1 .81.24 1.65.35 2.5.32.7-.02 1.4-.22 2-.59.63-.41 1.12-1 1.41-1.7a3.93 3.93 0 0 0-.47-4.21 8.19 8.19 0 0 0-1.84-1.76c-.83-.6-1.72-1.1-2.66-1.51l-3.63-1.6ZM61.6 105.54l8.24 5.52-2.91 4.33-22.44-15 5.14-7.68a11.92 11.92 0 0 1 2.75-3 8.92 8.92 0 0 1 3.17-1.53c1.1-.27 2.24-.3 3.35-.08a9.12 9.12 0 0 1 5.73 3.84c.6.94.99 1.99 1.14 3.09a8.91 8.91 0 0 1-.23 3.49 11.85 11.85 0 0 1-1.7 3.67l-2.24 3.35Zm-3.51-2.35 2.24-3.35c.38-.54.65-1.14.8-1.78a3.75 3.75 0 0 0-.65-3.06c-.32-.43-.7-.8-1.15-1.1a5.51 5.51 0 0 0-1.62-.75 3.8 3.8 0 0 0-3.2.48c-.54.37-1 .85-1.36 1.4l-2.25 3.35 7.19 4.81ZM101.1 68a3.73 3.73 0 0 0-1-.92c-.43-.24-.9-.39-1.39-.42a6.3 6.3 0 0 0-1.86.17c-.83.2-1.65.46-2.44.8-1.1.45-2.24.81-3.4 1.09-1.08.26-2.2.38-3.31.34a8.23 8.23 0 0 1-3-.7 6.41 6.41 0 0 1-2.48-2 6.61 6.61 0 0 1-1.16-6 9.4 9.4 0 0 1 1.48-3 13 13 0 0 1 6.13-4.59 9.23 9.23 0 0 1 3.44-.47 7.77 7.77 0 0 1 5.74 3.11l-4 3.09c-.36-.44-.8-.82-1.27-1.13a3.68 3.68 0 0 0-3.12-.33 6.3 6.3 0 0 0-3.06 2.28 4 4 0 0 0-.66 1.38 3.12 3.12 0 0 0 .59 2.62c.29.39.68.68 1.13.85.5.18 1.02.25 1.55.21a9 9 0 0 0 1.94-.35c.79-.23 1.56-.5 2.31-.82 1.14-.43 2.31-.77 3.51-1a11 11 0 0 1 3.25-.16c1 .1 1.98.4 2.87.87.91.49 1.7 1.17 2.33 2a6.66 6.66 0 0 1 1.21 6 9 9 0 0 1-1.5 3 14.67 14.67 0 0 1-4.89 4.07 11.73 11.73 0 0 1-4.81 1.27 8.1 8.1 0 0 1-4.65-1.29 8.18 8.18 0 0 1-2-1.89l4.07-3.12c.44.57.99 1.05 1.61 1.41.53.3 1.12.45 1.73.47.63 0 1.25-.12 1.82-.37a8.2 8.2 0 0 0 3.18-2.41 4 4 0 0 0 .68-1.36c.1-.44.1-.9 0-1.33a3.1 3.1 0 0 0-.57-1.37ZM120.8 50.89l-9.79 5.22 3.58 6.73 11.45-6.1 2 3.72-16.06 8.56-12.71-23.84 16-8.54 2 3.75-11.39 6.08 3.2 6 9.79-5.21 1.93 3.63ZM146.1 45.21c.35 1.22.47 2.5.34 3.76a8.47 8.47 0 0 1-3.3 5.92 11.6 11.6 0 0 1-3.46 1.82c-1.38.5-2.85.67-4.31.52a8.57 8.57 0 0 1-3.74-1.35c-1.2-.8-2.23-1.81-3.05-3a17.42 17.42 0 0 1-2.19-4.43L125.23 45a16.37 16.37 0 0 1-.9-4.89c-.05-1.45.19-2.9.68-4.26a9 9 0 0 1 5.84-5.51c1.27-.45 2.6-.67 3.95-.66a8.1 8.1 0 0 1 6.12 2.85c.85 1 1.55 2.11 2.06 3.32l-4.92 1.66a9.2 9.2 0 0 0-1-1.89 4.22 4.22 0 0 0-1.27-1.17c-.5-.26-1.04-.4-1.6-.42a5.8 5.8 0 0 0-2 .34 4.1 4.1 0 0 0-1.82 1.16c-.46.55-.77 1.2-.91 1.91a7.78 7.78 0 0 0 0 2.61c.17 1.1.43 2.18.8 3.23l1.17 3.48a12 12 0 0 0 2.95 5.23 3.8 3.8 0 0 0 4 .68 4.6 4.6 0 0 0 2.72-2.06 4.9 4.9 0 0 0 .12-3.75l4.88-1.65Z"/><path d="m159.18 41.16-3.9.62 1.6 10-5.15.83-4.29-26.68 8.95-1.43c1.35-.23 2.73-.28 4.09-.13 1.16.12 2.29.46 3.32 1a7 7 0 0 1 2.36 2.19 8.4 8.4 0 0 1 1.24 3.38c.15.86.18 1.75.08 2.62a7.17 7.17 0 0 1-1.91 4.04 9.79 9.79 0 0 1-1.8 1.49l7.51 10.09v.24l-5.51.89-6.59-9.15Zm-4.57-3.55 3.81-.62a4.76 4.76 0 0 0 3.18-1.65 4 4 0 0 0 .69-3.22 4.16 4.16 0 0 0-1.65-2.92 4.82 4.82 0 0 0-3.58-.56l-3.8.61 1.35 8.36ZM190.11 37.78l-11.1-.18-.12 7.63 13 .21-.07 4.21-18.2-.3.44-27 18.14.29-.07 4.25-12.91-.21-.11 6.81 11.09.18-.09 4.11ZM218.38 30.68l-8.22-1.39-3.78 22.49-5.16-.87L205 28.46l-8.1-1.36.7-4.19 21.49 3.62-.71 4.15ZM302.96 84.49l-5.66-6.11-16.7 15.45-3.56-3.84 16.72-15.45-5.58-6 3.12-2.88 14.79 16-3.13 2.83ZM307.31 110.98c-1.35.9-2.82 1.6-4.38 2.06-1.37.41-2.81.55-4.24.41a8.9 8.9 0 0 1-3.79-1.29 9.75 9.75 0 0 1-3.05-3 9.56 9.56 0 0 1-1.55-4 8.65 8.65 0 0 1 .38-3.91 11.44 11.44 0 0 1 2.1-3.66 17 17 0 0 1 3.64-3.17l3.28-2.16c1.35-.9 2.81-1.6 4.36-2.09 1.35-.43 2.77-.6 4.19-.5 1.32.1 2.6.51 3.75 1.19a9.18 9.18 0 0 1 3 3 9.61 9.61 0 0 1 1.58 4 9 9 0 0 1-.33 4 11.01 11.01 0 0 1-2.06 3.74 16 16 0 0 1-3.59 3.18l-3.29 2.2Zm.4-6.6a16.6 16.6 0 0 0 2.4-1.9 8.01 8.01 0 0 0 1.53-2c.34-.65.5-1.37.5-2.1a4 4 0 0 0-.73-2.13 3.72 3.72 0 0 0-1.63-1.45 4.07 4.07 0 0 0-2.07-.29 7.9 7.9 0 0 0-2.41.7c-.93.42-1.82.92-2.66 1.49l-3.32 2.18c-.84.56-1.65 1.17-2.4 1.85a7.82 7.82 0 0 0-1.6 1.95 4.1 4.1 0 0 0-.58 2c.01.75.25 1.49.69 2.1a3.94 3.94 0 0 0 3.8 1.84 8.15 8.15 0 0 0 2.47-.62c.95-.39 1.85-.87 2.7-1.44l3.31-2.18ZM310.31 120.93l-9.05 4-2.12-4.77 24.69-11 3.75 8.44c.56 1.23.9 2.55 1 3.9a8.9 8.9 0 0 1-.39 3.5 7.87 7.87 0 0 1-4.72 4.88 7.87 7.87 0 0 1-6.56.07 9 9 0 0 1-2.84-2.06c-.92-1-1.66-2.14-2.19-3.39l-1.57-3.57Zm3.87-1.72 1.63 3.68c.26.6.63 1.16 1.09 1.63a3.9 3.9 0 0 0 2.93 1.08 4.66 4.66 0 0 0 1.54-.39 5.66 5.66 0 0 0 1.5-1c.42-.37.76-.82 1-1.33a4 4 0 0 0 .33-1.64 4.78 4.78 0 0 0-.47-1.9l-1.63-3.68-7.92 3.55ZM320.93 174.37c.46-.04.91-.16 1.33-.37.44-.24.82-.59 1.1-1 .36-.51.65-1.07.86-1.66.27-.81.48-1.65.63-2.49.2-1.18.5-2.33.9-3.46.36-1.06.86-2.07 1.49-3a8.18 8.18 0 0 1 2.19-2.16c.9-.58 1.93-.92 3-1a6.7 6.7 0 0 1 5.7 2.23 9.6 9.6 0 0 1 1.77 2.88 13.14 13.14 0 0 1 .59 7.63 9.23 9.23 0 0 1-1.45 3.16 7.72 7.72 0 0 1-5.71 3.18l-.44-5.06a5.52 5.52 0 0 0 1.63-.47c.48-.24.9-.58 1.23-1a4 4 0 0 0 .73-1.48c.16-.65.2-1.33.13-2a6.32 6.32 0 0 0-.41-1.82c-.2-.48-.47-.92-.83-1.3a3.13 3.13 0 0 0-2.51-.91c-.48.03-.94.2-1.33.5-.42.32-.76.73-1 1.2a8.63 8.63 0 0 0-.75 1.82c-.23.79-.4 1.58-.55 2.39-.23 1.2-.57 2.38-1 3.52-.4 1.02-.94 1.97-1.61 2.83a7.32 7.32 0 0 1-5.26 2.84 6.75 6.75 0 0 1-5.72-2.2 8.92 8.92 0 0 1-1.7-2.87 14.7 14.7 0 0 1-.83-6.31c.08-.84.25-1.67.5-2.48.25-.79.58-1.55 1-2.26a7.8 7.8 0 0 1 3.61-3.21 8.46 8.46 0 0 1 2.66-.66l.45 5.1a5.6 5.6 0 0 0-2 .61c-.54.29-1 .7-1.33 1.21a4.34 4.34 0 0 0-.66 1.73 8.1 8.1 0 0 0 .33 3.98c.18.48.44.92.78 1.3a2.88 2.88 0 0 0 2.45.94l.03.12ZM324.85 200.17l.82-11.06-7.6-.57-1 12.94-4.2-.32 1.34-18.15 26.95 2-1.35 18.1-4.21-.33 1-12.88-6.79-.51-.82 11.07-4.14-.29ZM316.15 224.6a10.32 10.32 0 0 1-3.37-1.73 8.45 8.45 0 0 1-3.23-5.95 11.46 11.46 0 0 1 2.16-7.82 8.8 8.8 0 0 1 3.14-2.44 11.3 11.3 0 0 1 4.16-1c1.66-.07 3.31.1 4.92.51l3.53.86c1.62.38 3.18 1 4.61 1.85 1.25.74 2.35 1.7 3.24 2.85a9 9 0 0 1 1.54 7.88c-.3 1.31-.82 2.57-1.55 3.7a8.1 8.1 0 0 1-5.68 3.65c-1.3.2-2.6.2-3.9 0l1.22-5.05c.7.13 1.42.18 2.14.15a4.12 4.12 0 0 0 1.67-.46c.49-.27.9-.65 1.21-1.12.36-.56.62-1.2.76-1.85a3.87 3.87 0 0 0-1.14-3.95 7.74 7.74 0 0 0-2.18-1.42c-1.01-.45-2.07-.8-3.15-1.05l-3.57-.87c-1.94-.61-4-.71-6-.3a3.8 3.8 0 0 0-2.7 3 4.63 4.63 0 0 0 .29 3.39 4.92 4.92 0 0 0 3.11 2.11l-1.23 5.06ZM312.6 237.78l1.56-3.63-9.28-4 2.05-4.79 24.84 10.62-3.56 8.32a14.34 14.34 0 0 1-2.09 3.53 8.9 8.9 0 0 1-2.64 2.25c-.96.52-2.03.8-3.12.83-1.21 0-2.4-.25-3.51-.75a9.32 9.32 0 0 1-2.27-1.34 7.21 7.21 0 0 1-2.39-3.77 9.6 9.6 0 0 1-.3-2.32l-12.54 1-.22-.09 2.19-5.14 11.28-.72Zm5.45-2-1.52 3.55a4.8 4.8 0 0 0-.31 3.57 4 4 0 0 0 2.36 2.31 4.16 4.16 0 0 0 3.35.16 4.8 4.8 0 0 0 2.39-2.73l1.51-3.53-7.78-3.33ZM299.11 265.66l6-9.35-6.43-4.1-7 10.93-3.55-2.27 9.8-15.34 22.77 14.55-9.77 15.29-3.58-2.29 7-10.88-5.74-3.67-6 9.35-3.5-2.22ZM289.78 293.41l5.57-6.2-16.93-15.22 3.49-3.89 16.94 15.22 5.49-6.11 3.16 2.84-14.56 16.2-3.16-2.84ZM199.09 336.17l8.2-1.5-4.1-22.4 5.14-.94 4.1 22.39 8.09-1.48.76 4.18-21.42 3.93-.77-4.18ZM174.4 325.65c-.04-1.62.16-3.24.6-4.8a11 11 0 0 1 1.92-3.8 9.07 9.07 0 0 1 3.12-2.51 9.74 9.74 0 0 1 4.19-1 9.6 9.6 0 0 1 4.17.81 8.55 8.55 0 0 1 3.1 2.42c.9 1.1 1.58 2.37 2 3.73.47 1.55.72 3.15.73 4.77l.07 3.93c.04 1.62-.15 3.24-.56 4.8a11.3 11.3 0 0 1-1.83 3.8 8.54 8.54 0 0 1-3 2.53 9.2 9.2 0 0 1-4.13 1 9.84 9.84 0 0 1-4.24-.82 9.08 9.08 0 0 1-3.2-2.42 11 11 0 0 1-2.05-3.74c-.5-1.54-.76-3.16-.77-4.78l-.12-3.92Zm5.36 3.88c0 1 .11 2.01.32 3 .16.83.46 1.63.88 2.37a4.4 4.4 0 0 0 1.51 1.55 4 4 0 0 0 2.18.52c.75.02 1.48-.19 2.11-.6.58-.4 1.04-.95 1.34-1.59a8 8 0 0 0 .71-2.41c.13-1 .19-2 .17-3l-.07-4c-.01-1-.1-2-.28-3a7.87 7.87 0 0 0-.78-2.4 3.66 3.66 0 0 0-3.55-2.11 3.91 3.91 0 0 0-3.59 2.22 8.4 8.4 0 0 0-.8 2.42c-.17.99-.24 2-.22 3l.07 4.03ZM164.39 322.88l1.43-9.81 5.16.76-3.91 26.73-9.14-1.34a11.45 11.45 0 0 1-3.85-1.21 8.76 8.76 0 0 1-2.75-2.2 7.8 7.8 0 0 1-1.51-3 9 9 0 0 1 1-6.83 7.72 7.72 0 0 1 2.29-2.36 9.1 9.1 0 0 1 3.26-1.3c1.32-.23 2.68-.23 4 0l4.02.56Zm-.61 4.19-4-.59a5.22 5.22 0 0 0-2 0 3.73 3.73 0 0 0-2.49 1.9 5.66 5.66 0 0 0-.49 3.3 3.92 3.92 0 0 0 1.81 2.68 5 5 0 0 0 1.86.63l4 .58 1.31-8.5ZM113.53 303.32a3.26 3.26 0 0 0-.18 2.76c.23.58.55 1.13.94 1.62.54.67 1.13 1.28 1.77 1.85.88.8 1.7 1.69 2.44 2.62.7.87 1.27 1.82 1.72 2.84.4.95.63 1.97.65 3 0 1.08-.26 2.15-.77 3.11-.48.96-1.2 1.8-2.07 2.42a7.1 7.1 0 0 1-2.87 1.2c-1.12.2-2.26.2-3.38 0a12.86 12.86 0 0 1-3.6-1.27 11.38 11.38 0 0 1-3.16-2.31 9.12 9.12 0 0 1-1.9-2.91 7.8 7.8 0 0 1 .36-6.53l4.52 2.33a5.17 5.17 0 0 0-.48 1.64 3.53 3.53 0 0 0 1.03 2.95c.46.49 1 .89 1.61 1.18.55.3 1.14.5 1.76.62.5.1 1.02.1 1.53 0a3 3 0 0 0 1.25-.57c.38-.3.68-.66.9-1.09.23-.43.33-.91.29-1.4a3.81 3.81 0 0 0-.48-1.49c-.32-.57-.7-1.1-1.14-1.6-.54-.61-1.12-1.2-1.73-1.74-.89-.84-1.7-1.76-2.43-2.74a11.09 11.09 0 0 1-1.54-2.86 7.77 7.77 0 0 1-.43-3c.05-1.05.34-2.07.83-3a6.66 6.66 0 0 1 4.91-3.65 8.61 8.61 0 0 1 3.34.09 14.05 14.05 0 0 1 7.6 4.42c.54.63 1 1.32 1.37 2.06a7.58 7.58 0 0 1 .77 4.77c-.15.9-.44 1.79-.87 2.6l-4.55-2.34c.32-.64.52-1.34.58-2.06.04-.6-.07-1.21-.31-1.77a4.57 4.57 0 0 0-1.11-1.49 8.61 8.61 0 0 0-1.79-1.21 6.3 6.3 0 0 0-1.75-.63c-.5-.1-1.02-.1-1.52 0a2.82 2.82 0 0 0-2.11 1.58ZM89.65 292.78l8.9 6.63 4.55-6.12-10.4-7.74 2.51-3.38 14.61 10.86-16.13 21.75-14.56-10.84 2.54-3.4 10.36 7.71 4.06-5.47-8.9-6.62 2.46-3.38ZM73.68 272.4a10 10 0 0 1 3.25-1.92 8.53 8.53 0 0 1 6.76.45c1.17.6 2.23 1.38 3.13 2.34a9.83 9.83 0 0 1 2.32 3.67c.43 1.29.57 2.65.39 4-.21 1.41-.7 2.77-1.41 4a17.2 17.2 0 0 1-3.06 3.89l-2.61 2.52a16.14 16.14 0 0 1-4 2.91c-1.3.66-2.7 1.07-4.14 1.21a8.92 8.92 0 0 1-4-.54 9.5 9.5 0 0 1-3.51-2.37 11.66 11.66 0 0 1-2.3-3.29 8.45 8.45 0 0 1-.76-3.38c0-1.16.24-2.3.71-3.37.54-1.2 1.25-2.3 2.12-3.29l3.61 3.74a9 9 0 0 0-1.27 1.73c-.28.5-.46 1.07-.51 1.65-.03.56.08 1.11.3 1.62.29.6.68 1.16 1.15 1.64a4 4 0 0 0 1.83 1.14c.7.19 1.43.19 2.12 0 .85-.23 1.65-.6 2.37-1.09.92-.62 1.79-1.32 2.58-2.1l2.64-2.55c1.55-1.32 2.74-3 3.47-4.9a3.84 3.84 0 0 0-1.1-3.89 4.6 4.6 0 0 0-3-1.57c-1.3.03-2.54.57-3.44 1.5l-3.64-3.75ZM64.4 262.35l2.25 3.26 8.3-5.74 3 4.29-22.23 15.35-5.15-7.45a14.54 14.54 0 0 1-1.87-3.65 8.76 8.76 0 0 1-.49-3.43c.08-1.1.42-2.15 1-3.08a9.63 9.63 0 0 1 4.85-3.78 7 7 0 0 1 4.46 0c.74.25 1.46.58 2.12 1l5.88-11.11.2-.14 3.17 4.59-5.49 9.89Zm-1.23 5.66-2.2-3.18a4.77 4.77 0 0 0-2.85-2.16 4 4 0 0 0-3.21.76 4.19 4.19 0 0 0-1.93 2.75 4.86 4.86 0 0 0 1 3.48l2.18 3.16 7.01-4.81ZM48.03 236.09l4.72 10 6.9-3.25-5.52-11.73 3.81-1.8 7.75 16.47-24.44 11.51-7.73-16.42 3.85-1.81 5.5 11.68 6.16-2.9-4.73-10 3.73-1.75ZM29.6 213.33l2.25 8 21.92-6.17 1.42 5-21.92 6.16 2.23 7.92-4.09 1.15-5.9-21 4.09-1.06ZM37.62 189.57a7.13 7.13 0 1 0 0-14.26 7.13 7.13 0 0 0 0 14.26ZM253.47 63.73a7.13 7.13 0 1 0 0-14.26 7.13 7.13 0 0 0 0 14.26ZM253.47 313.98a7.13 7.13 0 1 0 0-14.26 7.13 7.13 0 0 0 0 14.26ZM222.33 194.9v35.88h-84.34V194.9h-12.7v48.66h109.72V194.9h-12.68Z"/><path d="M149.6 219.23h61.14v-11.58H149.6v11.58Zm1.22-27.7 59.4 12.5 2.44-11.89-59.4-12.51-2.44 11.9Zm7.82-28.57 55 25.75 5.13-11-55-25.74-5.13 10.99Zm15.28-27.09 46.68 39 7.83-9.31-46.81-39-7.7 9.31Zm30.06-28.81-9.77 7.24 36.17 48.91 9.78-7.23-36.18-48.92Z"/></g><defs><clipPath id="a"><path fill="#fff" d="M0 0h363.45v363.45H0z"/></clipPath></defs></svg>
