<svg fill="none" height="142" width="208" xmlns="http://www.w3.org/2000/svg"><path d="M0 0h208v142H0z" fill="#fff"/><path d="M0 0h208v20.88H0z" fill="#fafafb"/><path d="M0 20.88h208v2.1H0z" fill="#e4e6e8"/><path d="M41.6 22.97h4.16V142H41.6z" fill="#eff0f1"/><g fill="#d6d9dc"><path d="M6.24 31.32c0-1.25.83-2.08 2.08-2.08H41.6v16.7H8.32a2.08 2.08 0 0 1-2.08-2.09zM153.92 29.24H56.16c-1.15 0-2.08.93-2.08 2.08v12.53c0 1.16.93 2.1 2.08 2.1h97.76c1.15 0 2.08-.94 2.08-2.1V31.32c0-1.15-.93-2.08-2.08-2.08zM199.68 8.35h-4.16c-1.15 0-2.08.94-2.08 2.1v4.17c0 1.15.93 2.09 2.08 2.09h4.16c1.15 0 2.08-.94 2.08-2.1v-4.17c0-1.15-.93-2.09-2.08-2.09zM185.12 8.35h-4.16c-1.15 0-2.08.94-2.08 2.1v4.17c0 1.15.93 2.09 2.08 2.09h4.16c1.15 0 2.08-.94 2.08-2.1v-4.17c0-1.15-.93-2.09-2.08-2.09zM12.48 8.35H8.32c-1.15 0-2.08.94-2.08 2.1v4.17c0 1.15.93 2.09 2.08 2.09h4.16c1.15 0 2.08-.94 2.08-2.1v-4.17c0-1.15-.93-2.09-2.08-2.09zM199.68 56.38H76.96c-1.15 0-2.08.94-2.08 2.1v4.17c0 1.15.93 2.09 2.08 2.09h122.72c1.15 0 2.08-.94 2.08-2.1v-4.17c0-1.15-.93-2.09-2.08-2.09zM193.44 71H76.96c-1.15 0-2.08.93-2.08 2.09v4.17c0 1.16.93 2.1 2.08 2.1h116.48c1.15 0 2.08-.94 2.08-2.1V73.1c0-1.16-.93-2.09-2.08-2.09zM191.36 85.62H76.96c-1.15 0-2.08.93-2.08 2.09v4.17c0 1.16.93 2.1 2.08 2.1h114.4c1.15 0 2.08-.94 2.08-2.1v-4.17c0-1.16-.93-2.1-2.08-2.1zM195.52 100.23H76.96c-1.15 0-2.08.94-2.08 2.1v4.17c0 1.15.93 2.09 2.08 2.09h118.56c1.15 0 2.08-.94 2.08-2.09v-4.18c0-1.15-.93-2.08-2.08-2.08zM64.48 56.38h-8.32c-1.15 0-2.08.94-2.08 2.1v8.34c0 1.16.93 2.1 2.08 2.1h8.32c1.15 0 2.08-.94 2.08-2.1v-8.35c0-1.15-.93-2.09-2.08-2.09zM64.48 89.8h-8.32c-1.15 0-2.08.93-2.08 2.08v8.36c0 1.15.93 2.08 2.08 2.08h8.32c1.15 0 2.08-.93 2.08-2.08v-8.36c0-1.15-.93-2.09-2.08-2.09zM199.68 119.03h-24.96c-1.15 0-2.08.93-2.08 2.09v12.53c0 1.15.93 2.08 2.08 2.08h24.96c1.15 0 2.08-.93 2.08-2.08v-12.53c0-1.16-.93-2.1-2.08-2.1zM62.4 75.18h-4.16c-1.15 0-2.08.93-2.08 2.08v4.18c0 1.15.93 2.09 2.08 2.09h4.16c1.15 0 2.08-.94 2.08-2.09v-4.18c0-1.15-.93-2.08-2.08-2.08z"/></g><path d="M41.6 29.24h4.16v16.7H41.6z" fill="#f2720c"/><path d="M199.68 29.24h-35.36c-1.15 0-2.08.93-2.08 2.08v12.53c0 1.16.93 2.1 2.08 2.1h35.36c1.15 0 2.08-.94 2.08-2.1V31.32c0-1.15-.93-2.08-2.08-2.08z" fill="#07c"/><path d="M0 0h208v4.18H0z" fill="#f2720c"/></svg>
