<svg width="196" height="25" fill="none" xmlns="http://www.w3.org/2000/svg"><path d="M10.82 8.48V6.04h-9.2V20h2.73v-5.66h5.5V11.9h-5.5V8.48h6.47ZM15.32 20V6.04H12.6V20h2.72Zm11.72 0v-2.43H20.7V6.04h-2.73V20h9.06Zm9.04-11.52V6.04H26.06v2.44h3.65V20h2.72V8.48h3.65ZM46.9 20v-2.43h-6.47v-3.4h5.51v-2.42h-5.5V8.48h6.46V6.04h-9.2V20h9.2Zm12.65 0-3.11-6.02a3.76 3.76 0 0 0 2.54-3.66c0-2.33-1.68-4.28-4.52-4.28h-5.47V20h2.72v-5.57h1.96L56.4 20h3.15Zm-3.29-9.68c0 1.08-.78 1.84-1.98 1.84h-2.57V8.48h2.57c1.2 0 1.98.76 1.98 1.84Zm13.98 5.56c0-1.23-.33-2.25-1.08-2.96-.59-.54-1.39-.9-2.66-1.07l-1.65-.24a2.4 2.4 0 0 1-1.3-.55c-.29-.27-.4-.64-.4-1 0-.96.7-1.76 2.15-1.76.92 0 1.98.12 2.86.96l1.73-1.7c-1.2-1.16-2.59-1.63-4.51-1.63-3.02 0-4.86 1.74-4.86 4.23 0 1.18.33 2.08 1 2.74.63.61 1.5.98 2.7 1.16l1.69.24c.65.1.96.23 1.23.49.3.27.44.68.44 1.17 0 1.12-.87 1.73-2.47 1.73-1.3 0-2.5-.3-3.38-1.18l-1.76 1.77c1.37 1.39 2.98 1.84 5.1 1.84 2.92 0 5.17-1.53 5.17-4.24ZM102.41 14.72l-1.38-.13c-1.08-.08-1.5-.52-1.5-1.25 0-.87.67-1.42 1.92-1.42.9 0 1.67.21 2.28.69l.82-.82a4.85 4.85 0 0 0-3.08-.92c-1.84 0-3.16.94-3.16 2.51 0 1.42.89 2.17 2.56 2.31l1.42.13c.98.08 1.43.5 1.43 1.25 0 1.01-.88 1.51-2.28 1.51a3.52 3.52 0 0 1-2.67-.98l-.84.83c.95.9 2.08 1.24 3.52 1.24 2.07 0 3.5-.96 3.5-2.62 0-1.6-1.04-2.2-2.54-2.33Zm10.74-3.85c-1.38 0-2.24.28-3 1.24-.02 0 .81.82.81.82.5-.71 1.07-.98 2.17-.98 1.57 0 2.2.63 2.2 1.88v.82h-2.59c-1.92 0-2.96.97-2.96 2.47 0 .69.22 1.33.64 1.74.54.56 1.24.78 2.42.78 1.15 0 1.78-.22 2.47-.92v.82h1.26v-5.82c.01-1.85-1.12-2.85-3.42-2.85Zm2.18 5.64c0 .71-.14 1.21-.43 1.49-.54.53-1.18.57-1.92.57-1.36 0-1.98-.47-1.98-1.46s.63-1.51 1.92-1.51h2.4v.91Zm6.17-4.53c.82 0 1.32.25 1.98.96l.83-.82a3.37 3.37 0 0 0-2.8-1.25c-2.18 0-3.8 1.46-3.8 4.4 0 2.93 1.64 4.39 3.8 4.39a3.4 3.4 0 0 0 2.81-1.28l-.84-.82c-.64.7-1.16.97-1.98.97-.83 0-1.53-.33-1.99-.97-.4-.56-.55-1.23-.55-2.31 0-1.09.15-1.74.55-2.31a2.37 2.37 0 0 1 2-.96Zm10.75-1.02h-1.57l-3.9 3.79v-7.6h-1.25v12.4h1.26v-3.12l1.52-1.53 2.88 4.66h1.56l-3.56-5.54 3.06-3.05Zm5.9-.44c-1.31 0-2.2.51-2.76 1.1-.8.83-1.01 1.85-1.01 3.46 0 1.63.2 2.64 1.01 3.48.55.58 1.45 1.1 2.77 1.1s2.22-.52 2.78-1.1c.8-.84 1.02-1.85 1.02-3.48 0-1.61-.21-2.63-1.02-3.46a3.72 3.72 0 0 0-2.78-1.1Zm1.05 6.73c-.26.26-.6.39-1.04.39-.45 0-.78-.14-1.03-.39-.46-.46-.51-1.25-.51-2.18 0-.93.05-1.7.51-2.16.27-.26.58-.39 1.03-.39.44 0 .8.14 1.04.4.46.45.52 1.23.52 2.15 0 .93-.06 1.72-.52 2.18Zm8.68-6.63-1.8 5.52-1.83-5.52h-2.34l3.3 8.94h1.75l3.28-8.94h-2.36Zm6.14-.1c-2.32 0-3.89 1.64-3.89 4.56 0 3.62 2.03 4.58 4.13 4.58 1.61 0 2.49-.5 3.4-1.4l-1.36-1.33c-.57.57-1.04.83-2.03.83-1.25 0-1.96-.83-1.96-1.98h5.6v-1c0-2.45-1.4-4.26-3.89-4.26Zm-1.7 3.73c.02-.4.08-.64.22-.96.23-.53.73-.93 1.48-.93s1.25.38 1.5.93c.13.32.19.57.2.96h-3.4Zm8.9-2.77v-.86h-2.2v8.94h2.23v-5.38c0-1.13.75-1.64 1.45-1.64.54 0 .83.18 1.18.52l1.68-1.7a2.7 2.7 0 0 0-2.1-.83c-.96-.01-1.82.44-2.25.95Zm5.04-1.8v9.86h2.22V12.5h1.66v-1.7h-1.64v-.97c0-.51.26-.8.79-.8h.86v-1.9h-1.26c-1.84 0-2.63 1.3-2.63 2.57Zm13.06.84c-1.33 0-2.22.51-2.77 1.1-.8.83-1.02 1.85-1.02 3.46 0 1.63.21 2.64 1.02 3.48.54.58 1.44 1.1 2.76 1.1 1.33 0 2.23-.52 2.79-1.1.8-.84 1.01-1.85 1.01-3.48 0-1.61-.2-2.63-1.01-3.46a3.7 3.7 0 0 0-2.78-1.1Zm1.05 6.73c-.26.26-.6.39-1.04.39-.45 0-.78-.14-1.03-.39-.46-.46-.51-1.25-.51-2.18 0-.93.05-1.7.51-2.16.26-.26.58-.39 1.03-.39.44 0 .8.14 1.04.4.46.45.52 1.23.52 2.15 0 .93-.06 1.72-.52 2.18Zm13.28-6.63-1.45 5.52-1.83-5.52h-1.63l-1.82 5.52-1.44-5.52h-2.37l2.74 8.94h1.84l1.86-5.6 1.86 5.6h1.84l2.75-8.94h-2.35Zm-20.22 6.24V7.13h-2.22V17c0 1.26.78 2.56 2.61 2.56h1.27v-1.9h-.86c-.57 0-.8-.27-.8-.8Zm-65.01-4.53 1.15-1.16h-2.38V8.34h-1.25v8.91c0 1.28.74 2.3 2.2 2.3h.89v-1.08h-.67c-.8 0-1.17-.47-1.17-1.25v-4.9h1.23ZM79.88 12.1v-.95h-1.82V9.57c0-.77.35-1.24 1.14-1.24h.68V7.26h-.9c-1.45 0-2.16 1.02-2.16 2.28v1.6h-1.1v.96h1.1v7.5h1.24v-7.5h1.82ZM87.03 15.35c0-1.32-.17-2.5-1.04-3.39a3.34 3.34 0 0 0-2.43-.97c-1.04 0-1.85.38-2.44.97-.87.88-1.04 2.07-1.04 3.39 0 1.31.17 2.5 1.04 3.39.59.58 1.4.96 2.44.96 1.03 0 1.85-.38 2.43-.96.87-.89 1.04-2.08 1.04-3.4Zm-1.24 0c0 .95-.06 2-.68 2.63-.4.4-.95.62-1.55.62-.6 0-1.14-.23-1.54-.62-.62-.63-.7-1.68-.7-2.63s.08-2 .7-2.63c.4-.4.93-.62 1.54-.62.6 0 1.15.22 1.55.62.62.62.68 1.68.68 2.63ZM94.24 11.79c-.6-.6-1.22-.8-2.04-.8-.98 0-1.91.43-2.38 1.14V11.1h-1.25v8.5h1.25v-5.22c0-1.3.8-2.28 2.04-2.28.66 0 1 .15 1.47.62l.91-.93Z" fill="#FAFAFB"/></svg>
