<svg width="35" height="25" fill="none" xmlns="http://www.w3.org/2000/svg"><path d="M4.67 13.15h9.73v-1.4H4.67v1.4Zm2.88 9.62h-.36v1.4h.36v-1.4Zm-5.85-5.5v-1.15H.3v1.16h1.4Zm5.5 5.5a5.5 5.5 0 0 1-5.5-5.5H.3a6.9 6.9 0 0 0 6.9 6.9v-1.4Zm8.59-8.24a8.24 8.24 0 0 1-8.24 8.24v1.4a9.64 9.64 0 0 0 9.64-9.64h-1.4Zm-1.39-1.38c.77 0 1.39.62 1.39 1.38h1.4a2.79 2.79 0 0 0-2.79-2.78v1.4Zm-9.73-1.4A4.37 4.37 0 0 0 .3 16.12h1.4a2.97 2.97 0 0 1 2.97-2.97v-1.4Z" fill="#C8CCD0"/><path stroke="#C8CCD0" stroke-linecap="round" d="M3.86 15.1h9.76M3.86 16.94h9.76M3.86 18.77h8.45M5.44 20.61h5.3"/><path d="M.8 13.4a.7.7 0 0 0 1.2.72L.8 13.4ZM8.21 2.34l-.51-.48-.05.06-.04.06.6.36Zm3.31.5a.7.7 0 1 0 .99-1l-.99 1ZM1.99 14.12 8.82 2.7l-1.2-.72L.79 13.4l1.2.72Zm6.74-11.3c.23-.24.65-.54 1.15-.62.44-.08 1.02 0 1.65.64l.99-1a3.21 3.21 0 0 0-4.81.02l1.02.96ZM30.4 13.15h-9.73v-1.4h9.73v1.4Zm-2.87 9.62h.35v1.4h-.35v-1.4Zm5.84-5.5v-1.15h1.4v1.16h-1.4Zm-5.5 5.5a5.5 5.5 0 0 0 5.5-5.5h1.4a6.9 6.9 0 0 1-6.9 6.9v-1.4Zm-8.58-8.24a8.24 8.24 0 0 0 8.24 8.24v1.4a9.64 9.64 0 0 1-9.64-9.64h1.4Zm1.38-1.38c-.76 0-1.38.62-1.38 1.38h-1.4a2.79 2.79 0 0 1 2.78-2.78v1.4Zm9.73-1.4a4.37 4.37 0 0 1 4.37 4.37h-1.4a2.97 2.97 0 0 0-2.97-2.97v-1.4Z" fill="#C8CCD0"/><path stroke="#C8CCD0" stroke-linecap="round" d="M31.21 15.1h-9.76M31.21 16.94h-9.76M31.21 18.77h-8.45M29.64 20.61h-5.3"/><path d="M34.28 13.4a.7.7 0 1 1-1.2.72l1.2-.72ZM26.86 2.34l.5-.48.06.06.04.06-.6.36Zm-3.32.5a.7.7 0 1 1-.99-1l1 1Zm9.54 11.28L26.25 2.7l1.2-.72 6.83 11.42-1.2.72Zm-6.74-11.3a2.16 2.16 0 0 0-1.14-.62c-.45-.08-1.02 0-1.66.64l-.99-1a3.21 3.21 0 0 1 4.82.02l-1.03.96Z" fill="#C8CCD0"/><path d="M14.12 12.45h8.4M16.49 15.6h2.1" stroke="#C8CCD0" stroke-width="1.4" stroke-linecap="round"/></svg>
