<svg width="70" height="16" fill="none" xmlns="http://www.w3.org/2000/svg"><path d="M9.82 3.48V1.04H.62V15h2.73V9.34h5.5V6.9h-5.5V3.48h6.47ZM14.32 15V1.04H11.6V15h2.72Zm11.72 0v-2.43H19.7V1.04h-2.73V15h9.06Zm9.04-11.52V1.04H25.06v2.44h3.65V15h2.72V3.48h3.65ZM45.9 15v-2.43h-6.47v-3.4h5.51V6.76h-5.5V3.48h6.46V1.04h-9.2V15h9.2Zm12.65 0-3.11-6.02a3.76 3.76 0 0 0 2.54-3.66c0-2.33-1.68-4.28-4.52-4.28h-5.47V15h2.72V9.43h1.96L55.4 15h3.15Zm-3.29-9.68c0 1.08-.78 1.84-1.98 1.84h-2.57V3.48h2.57c1.2 0 1.98.76 1.98 1.84Zm13.98 5.56c0-1.23-.33-2.25-1.08-2.96-.59-.54-1.39-.9-2.66-1.07l-1.65-.24a2.4 2.4 0 0 1-1.3-.55c-.29-.27-.4-.64-.4-1 0-.96.7-1.76 2.15-1.76.92 0 1.98.12 2.86.96l1.73-1.7C67.69 1.4 66.3.92 64.38.92c-3.02 0-4.86 1.74-4.86 4.23 0 1.18.33 2.08 1 2.74.63.61 1.5.98 2.7 1.16l1.69.24c.65.1.96.23 1.23.49.3.27.44.68.44 1.17 0 1.12-.87 1.73-2.47 1.73-1.3 0-2.5-.3-3.38-1.18l-1.76 1.77c1.37 1.39 2.98 1.84 5.1 1.84 2.92 0 5.17-1.53 5.17-4.24Z" fill="#FAFAFB"/></svg>
