<svg width="36" height="36" fill="none" xmlns="http://www.w3.org/2000/svg"><path fill="url(#a)" d="M0 0h36v36H0z"/><path d="M29.606 14.905a1 1 0 0 1 .376 1.606l-4.378 4.794a1 1 0 0 0-.26.618l-.369 6.482a1 1 0 0 1-1.411.854l-5.913-2.683a1 1 0 0 0-.667-.056l-6.279 1.652a1 1 0 0 1-1.248-1.078l.724-6.452a1 1 0 0 0-.153-.652l-3.512-5.46a1 1 0 0 1 .64-1.521l6.36-1.306a1 1 0 0 0 .573-.346l4.108-5.028a1 1 0 0 1 1.644.14l3.207 5.644a1 1 0 0 0 .507.438l6.05 2.354Z" fill="url(#b)"/><path d="m19.12 11.903-.467-.784-.563.718-2.191 2.799-3.467.787-.89.201.51.757 1.984 2.95-.323 3.54-.083.908.877-.25 3.418-.977 3.267 1.401.838.36.033-.911.128-3.553 2.343-2.674.6-.686-.856-.313-3.34-1.22-1.819-3.053Z" stroke="url(#c)" stroke-opacity=".8" stroke-width="1.25"/><defs><linearGradient id="a" x1="18" y1=".468" x2="18" y2="36.468" gradientUnits="userSpaceOnUse"><stop stop-color="#454690"/><stop offset="1" stop-color="#439AD5"/></linearGradient><linearGradient id="c" x1="18.582" y1="12.223" x2="17.814" y2="24.307" gradientUnits="userSpaceOnUse"><stop stop-color="#fff"/><stop offset=".516" stop-color="#fff"/><stop offset=".516" stop-color="#fff" stop-opacity="0"/></linearGradient><radialGradient id="b" cx="0" cy="0" r="1" gradientUnits="userSpaceOnUse" gradientTransform="matrix(21.62599 -12.79915 20.17778 34.09323 7.518 27.734)"><stop stop-color="#88BF56"/><stop offset=".193" stop-color="#88BF56"/><stop offset=".193" stop-color="#F5E256"/><stop offset=".359" stop-color="#F5E256"/><stop offset=".359" stop-color="#DC803E"/><stop offset=".516" stop-color="#DC803E"/><stop offset=".516" stop-color="#D44073"/><stop offset=".677" stop-color="#D44073"/><stop offset=".677" stop-color="#454690"/><stop offset=".838" stop-color="#454690"/><stop offset=".838" stop-color="#4396D1"/><stop offset=".839" stop-color="#439AD5"/><stop offset="1" stop-color="#439AD5"/></radialGradient></defs></svg>
