<svg width="36" height="36" fill="none" xmlns="http://www.w3.org/2000/svg"><path fill="#fff" d="M0 0h36v36H0z"/><g filter="url(#a)" fill="#242729"><path d="M23 27v-6h2v8H7v-8h2v6h14Z"/><path fill-rule="evenodd" clip-rule="evenodd" d="m19.72 7-1.57 1.17L24 16.05l1.57-1.18L19.72 7ZM11 25h10v-2H11v2Zm11.4-7.08-7.54-6.28 1.25-1.5 7.54 6.28-1.25 1.5Zm-10-1.91 8.9 4.14.82-1.78-8.9-4.14L12.4 16Zm8.63 6.27-9.9-1.67.4-1.92 9.63 1.92-.13 1.67Z"/></g><defs><filter id="a" x="3" y="6" width="27" height="24" filterUnits="userSpaceOnUse" color-interpolation-filters="sRGB"><feFlood flood-opacity="0" result="BackgroundImageFix"/><feColorMatrix in="SourceAlpha" values="0 0 0 0 0 0 0 0 0 0 0 0 0 0 0 0 0 0 127 0" result="hardAlpha"/><feOffset dx="-3"/><feGaussianBlur stdDeviation=".5"/><feComposite in2="hardAlpha" operator="out"/><feColorMatrix values="0 0 0 0 0 0 0 0 0 1 0 0 0 0 1 0 0 0 1 0"/><feBlend in2="BackgroundImageFix" result="effect1_dropShadow_200_2740"/><feColorMatrix in="SourceAlpha" values="0 0 0 0 0 0 0 0 0 0 0 0 0 0 0 0 0 0 127 0" result="hardAlpha"/><feOffset dx="3"/><feGaussianBlur stdDeviation=".5"/><feComposite in2="hardAlpha" operator="out"/><feColorMatrix values="0 0 0 0 1 0 0 0 0 0 0 0 0 0 0 0 0 0 1 0"/><feBlend in2="effect1_dropShadow_200_2740" result="effect2_dropShadow_200_2740"/><feBlend in="SourceGraphic" in2="effect2_dropShadow_200_2740" result="shape"/></filter></defs></svg>
