<svg width="36" height="36" fill="none" xmlns="http://www.w3.org/2000/svg"><path fill="#C02D2E" d="M0 0h36v36H0z"/><path d="m2.24 21-.99.26.94 3.51.8-.2c.2-.06.37-.06.48 0 .12.05.2.17.25.35.05.19.04.33-.03.44-.07.1-.21.19-.42.24l-2.8.76c-.21.05-.37.05-.49 0-.1-.06-.2-.19-.24-.37-.05-.19-.04-.33.03-.43.06-.1.2-.2.42-.25l.79-.2-.95-3.53-.98.27.23.96.03.12a.5.5 0 0 1-.03.39.47.47 0 0 1-.31.22c-.18.04-.32.03-.43-.03-.1-.07-.19-.2-.24-.4v-.03l-.33-1.43c-.07-.28-.08-.46-.03-.53.06-.08.19-.14.4-.2l4.05-1.09c.21-.05.35-.06.44-.02.08.04.17.2.25.47l.43 1.4v.04c.06.2.06.35 0 .46-.05.1-.17.18-.34.23-.17.05-.3.04-.4-.03-.1-.07-.18-.21-.25-.44L2.24 21Zm4.18-1.23c-.4.1-.68.36-.83.75-.14.39-.13.87.02 1.45.16.58.4 1 .72 1.28.32.26.68.34 1.09.24.4-.11.68-.36.82-.75.15-.4.14-.88-.02-1.47-.15-.58-.4-1-.71-1.27a1.14 1.14 0 0 0-1.1-.23Zm-.3-1.1c.78-.2 1.49-.1 2.14.32a3.15 3.15 0 0 1 1.32 1.92c.23.87.17 1.64-.18 2.32a2.55 2.55 0 0 1-1.7 1.34c-.76.2-1.48.1-2.13-.32a3.15 3.15 0 0 1-1.32-1.91 3.15 3.15 0 0 1 .18-2.32c.35-.69.92-1.13 1.7-1.34Zm6.18 2.37.25.97.49-.13c.2-.06.36-.06.47 0 .1.06.18.17.23.36.05.18.04.33-.02.43-.07.1-.2.19-.4.24l-1.63.44c-.21.05-.37.05-.49 0-.1-.06-.19-.18-.24-.37-.04-.17-.03-.3.03-.41.06-.11.17-.19.34-.23l.08-.02-.94-3.52-.08.02a.52.52 0 0 1-.41-.03.57.57 0 0 1-.23-.36c-.05-.18-.04-.32.03-.43.07-.1.2-.19.4-.25l1.95-.52c.77-.2 1.4-.21 1.87-.02.47.19.79.57.94 1.15.16.6.1 1.11-.22 1.53-.3.42-.85.73-1.62.94l-.8.21Zm-.69-2.55.4 1.5.67-.19c.37-.1.63-.24.78-.41.16-.18.2-.4.14-.64a.63.63 0 0 0-.44-.47 1.53 1.53 0 0 0-.88.03l-.67.18Zm13.17-4.53a.5.5 0 0 1 .1-.25c.05-.05.14-.1.26-.13.19-.05.31-.04.38.01s.14.18.2.38l.26.9.01.05c.05.19.05.33 0 .42-.06.1-.17.16-.35.21-.22.06-.42-.01-.6-.22a1.05 1.05 0 0 0-.57-.4c-.2-.07-.4-.07-.63 0-.28.07-.5.2-.64.38a.62.62 0 0 0-.12.57c.08.29.54.4 1.38.36l.34-.02c.64-.03 1.13.05 1.47.25.34.2.58.53.7 1 .16.58.08 1.08-.23 1.5-.3.42-.83.72-1.56.92a4.87 4.87 0 0 1-1.48.15.48.48 0 0 1-.13.22.57.57 0 0 1-.26.13c-.2.05-.34.05-.44 0-.1-.06-.18-.18-.23-.37l-.32-1.1-.01-.06c-.06-.2-.06-.36 0-.46.05-.1.18-.18.37-.23.2-.06.41.05.63.3l.12.15c.19.2.4.34.65.4.26.07.54.05.86-.03.29-.08.5-.2.63-.36a.61.61 0 0 0 .1-.57c-.09-.34-.52-.5-1.3-.47h-.54c-.65.01-1.13-.08-1.43-.25a1.4 1.4 0 0 1-.62-.9 1.7 1.7 0 0 1 .25-1.47c.31-.46.8-.77 1.43-.94a3.07 3.07 0 0 1 1.32-.07Zm6.21-.71-2.19.58.32 1.21.83-.22-.01-.06c-.05-.18-.05-.32 0-.43.06-.1.17-.19.33-.23a.5.5 0 0 1 .38.03.4.4 0 0 1 .22.27l.02.06.03.1.26.98c.06.2.06.37.01.48-.05.11-.16.19-.33.23-.16.05-.3.04-.4-.03-.1-.06-.18-.17-.22-.34l-.02-.08-.84.22.38 1.4 2.2-.58-.15-.56c-.06-.21-.06-.37 0-.49.05-.1.17-.19.35-.24.18-.05.32-.03.42.04.1.06.18.2.24.42l.3 1.14c.05.17.05.3 0 .36-.05.08-.18.14-.37.2l-3.86 1.03c-.21.06-.37.05-.49 0-.1-.06-.18-.18-.23-.37-.05-.17-.04-.3.02-.41.06-.11.18-.19.34-.23l.08-.02-.94-3.52-.08.02a.52.52 0 0 1-.41-.03.57.57 0 0 1-.23-.36c-.05-.18-.04-.32.03-.43.07-.1.2-.19.4-.24l3.87-1.04c.2-.05.33-.06.41-.01.08.04.15.14.2.31l.28 1.06c.06.21.06.38 0 .5-.05.1-.16.19-.34.23-.18.05-.33.04-.43-.03-.1-.08-.19-.22-.24-.43l-.14-.5Zm5.7-2.43a.75.75 0 0 1 .14-.3.43.43 0 0 1 .23-.13c.15-.04.27-.03.35.03.1.07.16.2.22.4l.33 1.22c.06.22.07.37.01.47-.05.1-.16.16-.35.21a.47.47 0 0 1-.33 0 .8.8 0 0 1-.27-.3 1.16 1.16 0 0 0-.57-.55 1.28 1.28 0 0 0-.8 0c-.48.14-.8.4-.98.8-.17.4-.17.9 0 1.52.16.61.42 1.05.77 1.31.35.26.77.33 1.25.2.33-.09.66-.3 1-.62.34-.33.56-.5.67-.54.12-.03.24 0 .35.08.1.08.18.2.23.35.07.28-.1.6-.53.98-.42.37-.93.64-1.54.8a2.7 2.7 0 0 1-2.22-.27 3.1 3.1 0 0 1-1.34-1.93 3.1 3.1 0 0 1 .21-2.32c.37-.7.95-1.15 1.74-1.36.22-.06.45-.1.68-.1.23-.01.48 0 .76.05Z" fill="#fff"/><path stroke="#fff" stroke-dasharray="12 4" d="M-7.4 16.55 40.9 3.61l4.15 15.45-48.3 12.95z"/></svg>
