<svg width="36" height="36" fill="none" xmlns="http://www.w3.org/2000/svg"><path fill="#282828" d="M0 0h36v36H0z"/><g fill="#3F0"><path d="M1.08 6.59c-.49 0-.9-.1-1.23-.32a2.3 2.3 0 0 1-.77-.84 4.12 4.12 0 0 1-.41-1.17 6.99 6.99 0 0 1 .2-3.28c.11-.31.27-.59.46-.84.2-.24.43-.44.72-.58a2.3 2.3 0 0 1 1.03-.21c.5 0 .9.1 1.23.31.33.21.58.5.77.85.2.35.33.74.42 1.16a6.74 6.74 0 0 1-.2 3.29c-.12.3-.27.59-.47.83a2.08 2.08 0 0 1-1.75.8Zm0-1.12a1 1 0 0 0 .66-.22c.17-.14.3-.34.4-.58.1-.25.17-.51.21-.8a6.18 6.18 0 0 0 0-1.81c-.04-.3-.11-.57-.21-.8C2.04 1 1.9.81 1.73.67a.99.99 0 0 0-.65-.21 1 1 0 0 0-.66.22c-.17.14-.31.33-.41.58-.1.24-.17.51-.21.8a6.58 6.58 0 0 0 0 1.8c.04.3.12.57.22.81.1.24.23.43.4.58a1 1 0 0 0 .66.2Zm0-1.8a.7.7 0 0 1-.7-.71c0-.19.07-.35.2-.49.13-.13.3-.2.5-.2s.37.07.5.2c.14.14.21.3.21.5s-.07.37-.2.5c-.14.14-.31.2-.51.2ZM.5 15.48v-5.5l-1.52.42V9.27l2.71-.81v7H.5Zm-1.74 0v-1.14H3.4v1.14h-4.64Zm2.32 9.12c-.49 0-.9-.1-1.23-.32a2.3 2.3 0 0 1-.77-.84 4.12 4.12 0 0 1-.41-1.17 6.98 6.98 0 0 1 .2-3.28c.11-.31.27-.59.46-.84.2-.24.43-.44.72-.58a2.3 2.3 0 0 1 1.03-.21c.5 0 .9.1 1.23.31.33.21.58.5.77.85.2.35.33.74.42 1.16a6.74 6.74 0 0 1-.2 3.29c-.12.3-.27.59-.47.83a2.08 2.08 0 0 1-1.75.8Zm0-1.12a1 1 0 0 0 .66-.22c.17-.14.3-.34.4-.58.1-.25.17-.51.21-.8a6.18 6.18 0 0 0 0-1.81c-.04-.3-.11-.57-.21-.8-.1-.25-.24-.44-.41-.58a.99.99 0 0 0-.65-.21 1 1 0 0 0-.66.22c-.17.14-.31.33-.41.58-.1.24-.17.51-.21.8a6.58 6.58 0 0 0 0 1.8c.04.3.12.57.22.81.1.24.23.43.4.58a1 1 0 0 0 .66.2Zm0-1.8a.7.7 0 0 1-.7-.71c0-.19.07-.35.2-.49.13-.13.3-.2.5-.2s.37.07.5.2c.14.14.21.3.21.5s-.07.37-.2.5c-.14.14-.31.2-.51.2ZM8.08 6.59c-.49 0-.9-.1-1.22-.32a2.3 2.3 0 0 1-.78-.84 4.12 4.12 0 0 1-.41-1.17 6.99 6.99 0 0 1 .2-3.28c.11-.31.27-.59.46-.84.2-.24.43-.44.72-.58a2.3 2.3 0 0 1 1.03-.21c.5 0 .9.1 1.23.31.33.21.58.5.78.85.19.35.32.74.4 1.16a6.74 6.74 0 0 1-.2 3.29c-.1.3-.26.59-.46.83a2.08 2.08 0 0 1-1.75.8Zm0-1.12a1 1 0 0 0 .66-.22c.17-.14.3-.34.4-.58.1-.25.17-.51.21-.8a6.18 6.18 0 0 0 0-1.81c-.04-.3-.11-.57-.21-.8C9.04 1 8.9.81 8.73.67a.99.99 0 0 0-.65-.21 1 1 0 0 0-.66.22c-.17.14-.31.33-.41.58-.1.24-.17.51-.21.8a6.58 6.58 0 0 0 0 1.8c.04.3.12.57.21.81.1.24.24.43.42.58a1 1 0 0 0 .65.2Zm0-1.8a.7.7 0 0 1-.7-.71c0-.19.07-.35.2-.49.13-.13.3-.2.5-.2s.37.07.5.2c.14.14.21.3.21.5s-.07.37-.2.5c-.14.14-.31.2-.51.2Zm-.58 11.8v-5.5l-1.52.42V9.27l2.71-.81v7H7.5Zm-1.74 0v-1.14h4.64v1.14H5.76Zm1.74 9v-5.5l-1.52.42v-1.12l2.71-.81v7H7.5Zm-1.74 0v-1.14h4.64v1.14H5.76ZM14.5 6.47V.97l-1.52.42V.27l2.71-.81v7H14.5Zm-1.74 0V5.33h4.64v1.14h-4.64Zm2.32 9.12c-.49 0-.9-.1-1.22-.32a2.3 2.3 0 0 1-.78-.84 4.12 4.12 0 0 1-.41-1.17 6.98 6.98 0 0 1 .2-3.28c.11-.31.27-.59.46-.84.2-.24.43-.44.72-.58a2.3 2.3 0 0 1 1.03-.21c.5 0 .9.1 1.23.31.33.21.59.5.78.85.19.35.32.74.4 1.16a6.74 6.74 0 0 1-.2 3.29c-.1.3-.26.59-.46.83a2.08 2.08 0 0 1-1.75.8Zm0-1.12a1 1 0 0 0 .66-.22c.17-.14.3-.34.4-.58.1-.25.18-.51.21-.8a6.19 6.19 0 0 0 0-1.81c-.04-.3-.11-.57-.21-.8-.1-.25-.24-.44-.41-.58a.99.99 0 0 0-.65-.21 1 1 0 0 0-.66.22c-.17.14-.31.33-.41.58-.1.24-.17.51-.21.8a6.58 6.58 0 0 0 0 1.8c.04.3.11.57.21.81.1.24.24.43.42.58a1 1 0 0 0 .65.2Zm0-1.8a.7.7 0 0 1-.7-.71c0-.19.07-.35.2-.49.13-.13.3-.2.5-.2s.37.07.5.2c.14.14.21.3.21.5s-.07.37-.2.5c-.14.14-.31.2-.51.2Zm-.58 11.8v-5.5l-1.52.42v-1.12l2.71-.81v7H14.5Zm-1.74 0v-1.14h4.64v1.14h-4.64Zm2.32 9.12c-.49 0-.9-.1-1.22-.32a2.3 2.3 0 0 1-.78-.84 4.12 4.12 0 0 1-.41-1.17 6.98 6.98 0 0 1 .2-3.28c.11-.31.27-.59.46-.84.2-.24.43-.44.72-.58a2.3 2.3 0 0 1 1.03-.21c.5 0 .9.1 1.23.31.33.21.59.5.78.85.19.35.32.74.4 1.16a6.74 6.74 0 0 1-.2 3.29c-.1.3-.26.59-.46.83a2.08 2.08 0 0 1-1.75.8Zm0-1.12a1 1 0 0 0 .66-.22c.17-.14.3-.34.4-.58.1-.25.18-.51.21-.8a6.19 6.19 0 0 0 0-1.81c-.04-.3-.11-.57-.21-.8-.1-.25-.24-.44-.41-.58a.99.99 0 0 0-.65-.21 1 1 0 0 0-.66.22c-.17.14-.31.33-.41.58-.1.24-.17.51-.21.8a6.58 6.58 0 0 0 0 1.8c.04.3.11.57.21.81.1.24.24.43.42.58a1 1 0 0 0 .65.2Zm0-1.8a.7.7 0 0 1-.7-.71c0-.19.07-.35.2-.49.13-.13.3-.2.5-.2s.37.07.5.2c.14.14.21.3.21.5s-.07.37-.2.5c-.14.14-.31.2-.51.2ZM21.5 6.47V.97l-1.52.42V.27l2.71-.81v7H21.5Zm-1.74 0V5.33h4.64v1.14h-4.64Zm2.32 9.12c-.49 0-.9-.1-1.22-.32a2.3 2.3 0 0 1-.78-.84 4.12 4.12 0 0 1-.41-1.17 6.98 6.98 0 0 1 .2-3.28c.11-.31.27-.59.46-.84.2-.24.43-.44.72-.58a2.3 2.3 0 0 1 1.03-.21c.5 0 .9.1 1.23.31.33.21.59.5.78.85.19.35.32.74.4 1.16a6.74 6.74 0 0 1-.2 3.29c-.1.3-.26.59-.46.83a2.08 2.08 0 0 1-1.75.8Zm0-1.12a1 1 0 0 0 .66-.22c.17-.14.3-.34.4-.58.1-.25.18-.51.21-.8a6.19 6.19 0 0 0 0-1.81c-.04-.3-.11-.57-.21-.8-.1-.25-.24-.44-.41-.58a.99.99 0 0 0-.65-.21 1 1 0 0 0-.66.22c-.17.14-.31.33-.41.58-.1.24-.17.51-.21.8a6.58 6.58 0 0 0 0 1.8c.04.3.11.57.21.81.1.24.24.43.41.58a1 1 0 0 0 .66.2Zm0-1.8a.7.7 0 0 1-.7-.71c0-.19.07-.35.2-.49.13-.13.3-.2.5-.2s.37.07.5.2c.14.14.21.3.21.5s-.07.37-.2.5c-.14.14-.31.2-.51.2Zm0 11.92c-.49 0-.9-.1-1.22-.32a2.3 2.3 0 0 1-.78-.84 4.12 4.12 0 0 1-.41-1.17 6.98 6.98 0 0 1 .2-3.28c.11-.31.27-.59.46-.84.2-.24.43-.44.72-.58a2.3 2.3 0 0 1 1.03-.21c.5 0 .9.1 1.23.31.33.21.59.5.78.85.19.35.32.74.4 1.16a6.74 6.74 0 0 1-.2 3.29c-.1.3-.26.59-.46.83a2.08 2.08 0 0 1-1.75.8Zm0-1.12a1 1 0 0 0 .66-.22c.17-.14.3-.34.4-.58.1-.25.18-.51.21-.8a6.19 6.19 0 0 0 0-1.81c-.04-.3-.11-.57-.21-.8-.1-.25-.24-.44-.41-.58a.99.99 0 0 0-.65-.21 1 1 0 0 0-.66.22c-.17.14-.31.33-.41.58-.1.24-.17.51-.21.8a6.58 6.58 0 0 0 0 1.8c.04.3.11.57.21.81.1.24.24.43.41.58a1 1 0 0 0 .66.2Zm0-1.8a.7.7 0 0 1-.7-.71c0-.19.07-.35.2-.49.13-.13.3-.2.5-.2s.37.07.5.2c.14.14.21.3.21.5s-.07.37-.2.5c-.14.14-.31.2-.51.2ZM28.5 6.47V.97l-1.52.42V.27l2.71-.81v7H28.5Zm-1.74 0V5.33h4.64v1.14h-4.64Zm1.74 9v-5.5l-1.52.42V9.27l2.71-.81v7H28.5Zm-1.74 0v-1.14h4.64v1.14h-4.64ZM35.5 6.47V.97l-1.52.42V.27l2.71-.81v7H35.5Zm-1.74 0V5.33h4.64v1.14h-4.64Zm1.74 9v-5.5l-1.52.42V9.27l2.71-.81v7H35.5Zm-1.74 0v-1.14h4.64v1.14h-4.64Z"/></g></svg>
