<svg width="36" height="36" fill="none" xmlns="http://www.w3.org/2000/svg"><path fill="#FFF2BB" d="M0 0h36v36H0z"/><path fill-rule="evenodd" clip-rule="evenodd" d="M8.462 25.5308c.0644.2097.1419.4178.2328.6234 1.2423 2.8093 4.5267 4.0795 7.336 2.8372l11.1745-4.9416c2.8093-1.2423 4.0795-4.5268 2.8372-7.336a5.6294 5.6294 0 0 0-.295-.5755L8.7923 25.4052a3.334 3.334 0 0 1-.3303.1256ZM27.6145 12.4051a5.625 5.625 0 0 0-.2327-.6234c-1.2424-2.8092-4.5268-4.0794-7.336-2.8371L8.8712 13.8862c-2.8092 1.2423-4.0794 4.5267-2.8371 7.336.0883.1997.187.3916.295.5754l20.9551-9.2669c.109-.0482.2193-.09.3303-.1256Z" fill="#F8C909"/><rect x="3" y="21.9651" width="29.7469" height="6.5891" rx="3.2946" transform="rotate(-23.856 3 21.9651)" fill="#FE5756"/><path d="M7.5184 23.4599c2.8514-1.3872 3.6222-.6936 5.703-1.5413 2.0807-.8477 2.466-2.312 5.0092-3.4603 2.5431-1.1484 3.1597-.3159 5.4716-1.3178 2.312-1.0018 2.2559-2.0002 4.2385-2.9284" stroke="#F8C909" stroke-width="1.5" stroke-linecap="round"/></svg>
