<svg width="36" height="36" fill="none" xmlns="http://www.w3.org/2000/svg"><clipPath id="a"><path d="M0 0h36v36H0z"/></clipPath><path fill="#4267B2" d="M0 0h36v36H0z"/><path clip-path="url(#a)" d="M19.86 17.03c2.73 0 4.71.76 5.96 2.26 1.28 1.49 1.91 4.15 1.91 8 0 3.85-.72 6.51-2.18 8-1.46 1.45-3.96 2.18-7.53 2.18-1.11 0-3.16-.13-6.12-.4l-1.48-.15V9.7h5.22v8.39c1.67-.7 3.07-1.06 4.22-1.06ZM18.02 32.8c1.75 0 2.91-.42 3.51-1.25.6-.86.9-2.38.9-4.56 0-3.51-1.1-5.27-3.28-5.27-1.04 0-2.02.13-2.96.4l-.55.1v10.42c1.2.1 2 .16 2.38.16Z" fill="#fff"/></svg>
