<svg width="36" height="36" fill="none" xmlns="http://www.w3.org/2000/svg"><path fill="#699AF8" d="M0 0h36v36H0z"/><path d="M29.6 14.9a1 1 0 0 1 .38 1.61l-4.38 4.8a1 1 0 0 0-.26.61l-.36 6.48a1 1 0 0 1-1.42.86l-5.9-2.68a1 1 0 0 0-.68-.06l-6.27 1.65a1 1 0 0 1-1.25-1.08l.72-6.45a1 1 0 0 0-.15-.65l-3.51-5.46A1 1 0 0 1 7.16 13l6.36-1.3a1 1 0 0 0 .57-.35l4.1-5.03a1 1 0 0 1 1.65.14l3.2 5.64c.12.2.3.36.51.44l6.06 2.35Z" fill="url(#a)"/><g filter="url(#b)"><rect x="5" y="5.47" width="26" height="26" rx="1" fill="#F4DC0F"/></g><circle cx="8" cy="8.47" r="1" fill="#E1BC2D"/><circle cx="8" cy="8.47" r="1" fill="url(#c)" fill-opacity=".2"/><circle cx="8" cy="28.47" r="1" fill="#E1BC2D"/><circle cx="8" cy="28.47" r="1" fill="url(#d)" fill-opacity=".2"/><circle cx="28" cy="8.47" r="1" fill="#E1BC2D"/><circle cx="28" cy="8.47" r="1" fill="url(#e)" fill-opacity=".2"/><circle cx="28" cy="28.47" r="1" fill="#E1BC2D"/><circle cx="28" cy="28.47" r="1" fill="url(#f)" fill-opacity=".2"/><g filter="url(#g)"><path d="m21.93 10.57 2.97 2.97v2.58l-2.97 3h-2.14v1.38h-4.98v-1.39l2.98-2.99h2.15v-2.58h-4.08v1.5H10.9v-1.48l2.98-3h8.06ZM14.8 22h4.98v3.47h-4.98V22Z" fill="#fff"/></g><defs><linearGradient id="c" x1="8" y1="7.47" x2="8" y2="9.47" gradientUnits="userSpaceOnUse"><stop stop-opacity=".6"/><stop offset=".67" stop-opacity="0"/></linearGradient><linearGradient id="d" x1="8" y1="27.47" x2="8" y2="29.47" gradientUnits="userSpaceOnUse"><stop stop-opacity=".6"/><stop offset=".67" stop-opacity="0"/></linearGradient><linearGradient id="e" x1="28" y1="7.47" x2="28" y2="9.47" gradientUnits="userSpaceOnUse"><stop stop-opacity=".6"/><stop offset=".67" stop-opacity="0"/></linearGradient><linearGradient id="f" x1="28" y1="27.47" x2="28" y2="29.47" gradientUnits="userSpaceOnUse"><stop stop-opacity=".6"/><stop offset=".67" stop-opacity="0"/></linearGradient><filter id="b" x="5" y="5.47" width="26" height="26" filterUnits="userSpaceOnUse" color-interpolation-filters="sRGB"><feFlood flood-opacity="0" result="BackgroundImageFix"/><feBlend in="SourceGraphic" in2="BackgroundImageFix" result="shape"/><feColorMatrix in="SourceAlpha" values="0 0 0 0 0 0 0 0 0 0 0 0 0 0 0 0 0 0 127 0" result="hardAlpha"/><feOffset dy="1"/><feComposite in2="hardAlpha" operator="arithmetic" k2="-1" k3="1"/><feColorMatrix values="0 0 0 0 1 0 0 0 0 0.940611 0 0 0 0 0.433333 0 0 0 1 0"/><feBlend in2="shape" result="effect1_innerShadow_200_2788"/><feColorMatrix in="SourceAlpha" values="0 0 0 0 0 0 0 0 0 0 0 0 0 0 0 0 0 0 127 0" result="hardAlpha"/><feMorphology radius="1" in="SourceAlpha" result="effect2_innerShadow_200_2788"/><feOffset/><feComposite in2="hardAlpha" operator="arithmetic" k2="-1" k3="1"/><feColorMatrix values="0 0 0 0 0 0 0 0 0 0 0 0 0 0 0 0 0 0 0.05 0"/><feBlend in2="effect1_innerShadow_200_2788" result="effect2_innerShadow_200_2788"/></filter><filter id="g" x="10.89" y="10.57" width="14.52" height="15.4" filterUnits="userSpaceOnUse" color-interpolation-filters="sRGB"><feFlood flood-opacity="0" result="BackgroundImageFix"/><feColorMatrix in="SourceAlpha" values="0 0 0 0 0 0 0 0 0 0 0 0 0 0 0 0 0 0 127 0" result="hardAlpha"/><feOffset dx=".5" dy=".5"/><feComposite in2="hardAlpha" operator="out"/><feColorMatrix values="0 0 0 0 0 0 0 0 0 0 0 0 0 0 0 0 0 0 0.1 0"/><feBlend in2="BackgroundImageFix" result="effect1_dropShadow_200_2788"/><feBlend in="SourceGraphic" in2="effect1_dropShadow_200_2788" result="shape"/></filter><radialGradient id="a" cx="0" cy="0" r="1" gradientUnits="userSpaceOnUse" gradientTransform="matrix(21.62599 -12.79915 20.17778 34.09323 7.52 27.73)"><stop stop-color="#88BF56"/><stop offset=".19" stop-color="#88BF56"/><stop offset=".19" stop-color="#F5E256"/><stop offset=".36" stop-color="#F5E256"/><stop offset=".36" stop-color="#DC803E"/><stop offset=".52" stop-color="#DC803E"/><stop offset=".52" stop-color="#D44073"/><stop offset=".68" stop-color="#D44073"/><stop offset=".68" stop-color="#454690"/><stop offset=".84" stop-color="#454690"/><stop offset=".84" stop-color="#4396D1"/><stop offset=".84" stop-color="#439AD5"/><stop offset="1" stop-color="#439AD5"/></radialGradient></defs></svg>
